<svg width="54" height="54" viewBox="0 0 54 54" fill="none" xmlns="http://www.w3.org/2000/svg">
<path d="M49.6875 0H3.75C1.67883 0 0 1.67906 0 3.75V49.6875C0 51.7587 1.67883 53.4375 3.75 53.4375H49.6875C51.7584 53.4375 53.4375 51.7587 53.4375 49.6875V3.75C53.4375 1.67906 51.7584 0 49.6875 0ZM19.7609 19.8839L10.4475 26.8959L19.7609 33.1111V38.3974L6.24023 28.7093V25.5466L19.7609 14.5763V19.8839ZM24.9213 42.8873H21.1498L28.5705 10.5499H32.3423L24.9213 42.8873ZM47.1973 28.7091L33.6766 38.3972V33.1109L42.99 26.8957L33.6766 19.8837V14.576L47.1973 25.5464V28.7091Z" fill="black"/>
</svg>
