<svg width="40" height="40" viewBox="0 0 40 40" fill="none" xmlns="http://www.w3.org/2000/svg">
<path d="M33.4375 20.026C33.4375 19.5573 33.2812 19.1668 32.9687 18.8543L30.599 16.4843C30.2865 16.1719 29.8958 16.0157 29.4271 16.0157C28.9583 16.0157 28.5677 16.1719 28.2552 16.4843L23.3333 21.4063V8.33333C23.3333 7.882 23.1684 7.49133 22.8385 7.16133C22.5087 6.83156 22.118 6.66667 21.6667 6.66667H18.3333C17.8819 6.66667 17.4913 6.83156 17.1615 7.16133C16.8316 7.49133 16.6667 7.882 16.6667 8.33333V21.4063L11.7448 16.4843C11.4149 16.1546 11.0243 15.9897 10.5729 15.9897C10.1215 15.9897 9.7309 16.1546 9.40103 16.4843L7.03123 18.8543C6.71874 19.1668 6.5625 19.5573 6.5625 20.026C6.5625 20.4949 6.71874 20.8856 7.03123 21.198L16.4583 30.625L18.8281 32.9947C19.1406 33.3073 19.5312 33.4637 20 33.4637C20.4688 33.4637 20.8594 33.3073 21.1719 32.9947L23.5417 30.625L32.9687 21.198C33.2812 20.8856 33.4375 20.4949 33.4375 20.026ZM40 20C40 23.6284 39.1059 26.9748 37.3177 30.039C35.5295 33.1032 33.1033 35.5294 30.0391 37.3177C26.9748 39.1059 23.6285 40 20 40C16.3715 40 13.0252 39.1059 9.96093 37.3177C6.89669 35.5294 4.47048 33.1032 2.6823 30.039C0.8941 26.9748 0 23.6284 0 20C0 16.3716 0.8941 13.0252 2.6823 9.961C4.47048 6.89678 6.89669 4.47056 9.96093 2.68233C13.0252 0.894111 16.3715 0 20 0C23.6285 0 26.9748 0.894111 30.0391 2.68233C33.1033 4.47056 35.5295 6.89678 37.3177 9.961C39.1059 13.0252 40 16.3716 40 20Z" fill="black"/>
</svg>
