<svg width="50" height="50" viewBox="0 0 50 50" fill="none" xmlns="http://www.w3.org/2000/svg">
<path d="M45.8441 9.61049L40.3896 4.15602C39.6104 3.37662 38.2467 3.37662 37.2727 4.15602L34.7402 6.68857L43.3117 15.26L45.8441 12.7274C46.6234 11.948 46.6234 10.5849 45.8441 9.61049Z" fill="#E57373"/>
<path d="M6.42984 35.0657L30.3944 11.1012L38.9335 19.6403L14.9689 43.6048L6.42984 35.0657Z" fill="#FF9800"/>
<path d="M43.3115 15.3338L39.0419 19.6034L30.5029 11.0643L34.7724 6.79474L43.3115 15.3338Z" fill="#B0BEC5"/>
<path d="M6.49351 35.1298L3.57143 46.4285L14.8701 43.5064L6.49351 35.1298Z" fill="#FFC107"/>
<path d="M4.93507 40.5844L3.57143 46.4285L9.41559 45.0649L4.93507 40.5844Z" fill="#37474F"/>
</svg>
