<svg width="40" height="50" viewBox="0 0 40 50" fill="none" xmlns="http://www.w3.org/2000/svg">
<path d="M35.5683 50C35.0092 49.9996 34.4574 49.873 33.954 49.6295C33.4504 49.3859 33.0083 49.0317 32.6603 48.5933C31.5835 47.4283 23.2614 39.2384 18.1618 34.2451C17.8089 33.9042 17.5268 33.4969 17.3317 33.0462C17.1366 32.5958 17.0323 32.1109 17.025 31.6199C17.0177 31.1288 17.1074 30.6411 17.289 30.1848C17.4706 29.7286 17.7405 29.3129 18.0831 28.9616C18.4257 28.6105 18.8343 28.3306 19.2854 28.1382C19.7364 27.9458 20.2209 27.8449 20.7111 27.8408C21.2013 27.8368 21.6874 27.9301 22.1415 28.1152C22.5955 28.3004 23.0085 28.5737 23.3567 28.9194C23.3931 28.9551 27.0658 32.5518 30.7112 36.1446L31.8533 37.2708V19.7815C31.8533 12.9801 26.3759 7.44674 19.6429 7.44674C12.9098 7.44674 7.43243 12.9801 7.43243 19.7815V46.2763C7.43243 47.2638 7.04089 48.2109 6.34397 48.9092C5.64705 49.6074 4.70181 49.9996 3.71621 49.9996C2.7306 49.9996 1.78538 49.6074 1.08845 48.9092C0.391529 48.2109 0 47.2638 0 46.2763V19.7815C0 8.87388 8.81172 0 19.6429 0C30.4739 0 39.2857 8.87388 39.2857 19.7815V46.2763C39.2853 47.2638 38.8935 48.2109 38.1964 48.9094C37.4993 49.6076 36.554 49.9998 35.5683 50ZM32.1897 47.8234L32.1913 47.8268L32.1897 47.8234Z" fill="url(#paint0_linear)"/>
<path d="M19.643 23.3605C21.9887 23.3605 23.8901 21.4554 23.8901 19.1053C23.8901 16.7551 21.9887 14.8499 19.643 14.8499C17.2974 14.8499 15.3959 16.7551 15.3959 19.1053C15.3959 21.4554 17.2974 23.3605 19.643 23.3605Z" fill="url(#paint1_linear)"/>
<defs>
<linearGradient id="paint0_linear" x1="19.6429" y1="50.6" x2="19.6429" y2="0.149998" gradientUnits="userSpaceOnUse">
<stop stop-color="#00C0F4"/>
<stop offset="1" stop-color="#12ECA0"/>
</linearGradient>
<linearGradient id="paint1_linear" x1="19.643" y1="50.5864" x2="19.643" y2="0.143425" gradientUnits="userSpaceOnUse">
<stop stop-color="#00C0F4"/>
<stop offset="1" stop-color="#12ECA0"/>
</linearGradient>
</defs>
</svg>
