<svg width="60" height="60" viewBox="0 0 60 60" fill="none" xmlns="http://www.w3.org/2000/svg">
<path d="M21.7417 51.5523C19.8705 50.9618 17.4698 49.5166 15.8714 48.0188C14.9469 47.1526 14.7612 47.1008 14.6109 47.6673C14.4909 48.1195 14.4197 48.0445 14.388 47.4273C14.3623 46.9298 14.1905 46.5226 14.0062 46.5226C13.8219 46.5226 13.6693 46.2955 13.6676 46.0195C13.6657 45.7452 13.1645 44.4646 12.5538 43.1789C11.532 41.027 11.4577 40.5458 11.622 37.1455C11.8222 33.0016 11.9177 32.4903 12.632 31.7215C13.3237 30.977 13.2639 30.2978 12.5313 30.5789C12.1996 30.7075 11.9279 30.6346 11.9279 30.4203C11.9279 30.206 12.2039 30.0303 12.5413 30.0303C12.8786 30.0303 14.1909 28.9782 15.4574 27.6925C17.9874 25.1236 20.3323 23.8109 23.4451 23.2208C26.1992 22.6983 30.0069 23.285 32.6966 24.6458L34.8676 25.7442L36.0677 24.5943C36.8867 23.8096 37.268 23.0545 37.268 22.2162C37.268 21.164 38.2083 20.0523 43.8393 14.4483C49.8419 8.47447 50.5335 7.90833 51.8295 7.90833C54.577 7.90833 56.5499 10.8616 55.3614 13.1952C54.6943 14.5053 44.1539 25.127 42.8185 25.8346C42.2211 26.1518 41.4165 26.4106 41.0305 26.4106C40.1918 26.4106 38.0724 28.3465 38.0724 29.1128C38.0724 29.4085 38.3261 29.7509 38.6362 29.87C38.9465 29.99 39.3183 30.7169 39.4628 31.487C39.6073 32.258 40.0024 32.9943 40.3406 33.1242C40.7856 33.2956 40.8236 33.4413 40.4777 33.6552C40.1374 33.8652 40.1186 34.1712 40.4113 34.7185C40.6376 35.1428 40.7713 36.431 40.7091 37.5852C40.647 38.7393 40.752 39.6839 40.9431 39.6839C41.1338 39.6839 41.2718 40.1815 41.25 40.79L41.2114 41.8962L40.9277 40.8903C40.6478 39.8982 40.6376 39.9029 40.1633 41.2503C39.5647 42.953 39.5608 42.8999 40.2859 42.8999C40.6575 42.8999 40.8892 43.277 40.8892 43.8818C40.8892 45.1452 40.1045 45.6299 39.468 44.7595C39.048 44.1852 38.939 44.1723 38.7461 44.6738C38.621 44.9995 38.6235 45.9093 38.7504 46.6966C38.9557 47.9613 38.8832 48.1276 38.1255 48.1276C37.6541 48.1276 37.2685 47.9262 37.2685 47.6768C37.2685 47.4282 36.4992 47.8525 35.559 48.6196C34.6188 49.3863 33.4325 50.2345 32.9228 50.504C29.8877 52.1108 24.9751 52.5698 21.7423 51.5493L21.7417 51.5523ZM30.3924 47.0202L31.7723 46.3658L30.6785 46.0015C29.6705 45.6672 29.5943 45.4906 29.7058 43.7665C29.8254 41.9206 29.8447 41.8966 31.2345 41.8966C32.5978 41.8966 32.6487 41.9523 32.8434 43.6529C33.0607 45.551 33.0337 45.557 34.8288 43.1943C35.3075 42.5643 35.282 42.5095 34.6098 42.7238C34.0673 42.8952 34.1663 42.6809 34.9553 42.014C35.5636 41.4903 36.0614 40.8543 36.0614 40.601C36.0614 40.3482 35.5636 40.0825 34.9553 40.0126C33.9418 39.8969 33.8389 39.7255 33.7263 37.9692C33.6076 36.1182 33.6453 36.0445 34.8324 35.807C36.226 35.5285 36.3451 34.9739 35.4078 33.128C34.1705 30.6912 33.8692 30.5455 33.648 32.2773C33.4573 33.7705 33.3742 33.8519 32.0392 33.8519C30.6402 33.8519 30.6314 33.8519 30.6314 32.054C30.6314 30.545 30.7908 30.1765 31.6216 29.762C32.5971 29.2756 32.5792 29.2533 30.4149 28.2458C27.4748 26.8773 24.5495 26.8713 21.6353 28.2458C19.8628 29.0708 19.5616 29.3523 19.9504 29.8208C20.211 30.1336 20.3674 31.1742 20.2988 32.1308C20.1818 33.7576 20.0918 33.8776 18.9008 33.9933C17.8798 34.0919 17.5717 33.9376 17.3433 33.2198L17.0588 32.3228L16.5281 33.2973C15.7196 34.7823 15.4193 38.132 15.926 40.0135C16.3421 41.5585 16.4635 41.6708 17.4935 41.4646C18.9701 41.1689 19.6571 42.0385 19.4958 43.9979C19.3574 45.6805 19.9647 46.4146 22.1849 47.2482C24.9266 48.2776 27.944 48.2005 30.3928 47.0382L30.3924 47.0202ZM22.46 43.9936C22.3885 42.1366 22.3538 42.0852 21.4807 42.5309L20.5757 42.9929L21.4695 42.0646C21.9611 41.5542 22.469 41.2418 22.5982 41.3712C22.7272 41.4998 22.7657 42.5763 22.6839 43.7622L22.5347 45.9183L22.4602 43.9936H22.46ZM25.0862 45.4679C24.5615 44.9433 24.7875 42.2052 25.3969 41.699C25.7453 41.4119 26.4256 41.309 27.0273 41.4633C27.9772 41.7033 28.0499 41.8748 27.9375 43.6199C27.8227 45.407 27.7447 45.524 26.5943 45.6368C25.9227 45.701 25.244 45.6368 25.086 45.4696L25.0862 45.4679ZM27.4134 43.706C27.4134 42.5523 27.2501 42.275 26.5084 42.1696C25.695 42.0539 25.6034 42.2125 25.6034 43.706C25.6034 45.2026 25.6952 45.3578 26.5084 45.2425C27.2501 45.1353 27.4134 44.861 27.4134 43.706ZM18.0256 38.3493C17.9656 36.5463 17.8983 36.4289 17.0562 36.6612C16.1752 36.9055 16.1779 36.8883 17.1569 36.0359L18.1625 35.1608L18.2885 36.4169C18.3579 37.1073 18.3416 38.261 18.2542 38.9798C18.1316 39.9689 18.0764 39.8155 18.0275 38.3493H18.0256ZM20.5362 39.5249C20.4179 39.2163 20.3781 38.2662 20.4484 37.4133C20.5615 36.038 20.7072 35.8478 21.7388 35.7299C22.3994 35.6528 23.0483 35.8285 23.2409 36.1328C23.7436 36.9256 23.6631 39.05 23.1098 39.6038C22.4502 40.2633 20.8002 40.2132 20.5364 39.5266L20.5362 39.5249ZM22.7116 37.7733C22.6122 36.5746 22.4215 36.2648 21.7823 36.2648C21.1431 36.2648 20.9522 36.5733 20.853 37.7733C20.7377 39.1645 20.8102 39.2815 21.7823 39.2815C22.7545 39.2815 22.8267 39.1658 22.7116 37.7733ZM25.2807 37.9748C25.399 35.9236 25.4367 35.8632 26.609 35.8632C27.7811 35.8632 27.8191 35.9232 27.9372 37.9748L28.0589 40.0863H26.6091H25.1593L25.281 37.9748H25.2807ZM27.6146 38.0776C27.6146 36.6295 27.5138 36.4688 26.609 36.4688C25.7375 36.4688 25.6034 36.6488 25.6034 37.8093C25.6034 39.3406 25.8379 39.6865 26.8771 39.6865C27.4693 39.6865 27.6146 39.3693 27.6146 38.0776ZM31.134 39.8575C30.9681 39.6903 30.8323 38.8362 30.8323 37.961C30.8323 36.5926 30.7478 36.44 30.2289 36.8708C29.8334 37.2008 29.6256 37.2222 29.6256 36.935C29.6256 36.4512 31.1927 35.489 31.4926 35.789C31.5968 35.8919 31.6263 36.92 31.5586 38.0708C31.4909 39.2219 31.2998 40.0263 31.1339 39.8583L31.134 39.8575ZM23.2545 32.3189C23.1945 30.5142 23.1281 30.3985 22.2851 30.6346C21.4118 30.8789 21.4153 30.8618 22.3858 30.077L23.3914 29.2658L23.5174 30.4538C23.5868 31.1073 23.5705 32.2302 23.4831 32.9493C23.3605 33.938 23.3052 33.7846 23.2564 32.3189H23.2545ZM25.8559 33.4409C25.5002 32.5139 25.5529 30.7353 25.9549 30.1015C26.1473 29.7972 26.7965 29.6236 27.457 29.6986C28.5668 29.8272 28.6201 29.9258 28.6201 31.8428C28.6201 33.8005 28.5858 33.857 27.3642 33.9758C26.4928 34.0615 26.031 33.8986 25.8558 33.4405L25.8559 33.4409ZM28.2179 31.8376C28.2179 30.5022 28.0833 30.2343 27.4134 30.2343C26.8289 30.2343 26.5733 30.5472 26.4784 31.3743C26.2993 32.9399 26.6738 33.7383 27.5128 33.5768C28.0441 33.4739 28.2179 33.0458 28.2179 31.8376ZM38.4745 46.9263C38.4745 46.484 38.2937 46.1219 38.0721 46.1219C37.8509 46.1219 37.6697 46.4819 37.6697 46.9263C37.6697 47.3686 37.8505 47.7308 38.0721 47.7308C38.2932 47.7308 38.4745 47.3708 38.4745 46.9263ZM32.039 43.7086C32.039 42.368 31.9049 42.0998 31.2345 42.0998C30.5642 42.0998 30.4301 42.3698 30.4301 43.7086C30.4301 45.0492 30.5642 45.3175 31.2345 45.3175C31.9049 45.3175 32.039 45.0475 32.039 43.7086ZM18.7657 43.5072C18.7657 42.3676 18.6122 42.0993 17.9612 42.0993C16.9872 42.0993 16.944 42.6072 17.8065 43.9233C18.6599 45.2258 18.7658 45.1799 18.7658 43.5076L18.7657 43.5072ZM40.4856 44.1102C40.4856 43.6679 40.3048 43.3058 40.0832 43.3058C39.8621 43.3058 39.6808 43.6658 39.6808 44.1102C39.6808 44.5529 39.8616 44.9146 40.0832 44.9146C40.3043 44.9146 40.4856 44.5546 40.4856 44.1102ZM36.0612 38.0772C36.0612 36.629 35.9605 36.4683 35.0556 36.4683C34.1842 36.4683 34.0501 36.6483 34.0501 37.8089C34.0501 39.3402 34.2849 39.686 35.3238 39.686C35.9159 39.686 36.0612 39.3689 36.0612 38.0772ZM19.901 32.09C20.0596 30.4366 19.4665 29.6862 18.5816 30.4208C17.9506 30.9445 17.7301 32.885 18.2435 33.3985C18.9108 34.0658 19.7775 33.3985 19.9013 32.09H19.901ZM32.8434 32.0429C32.8434 30.7023 32.7093 30.434 32.039 30.434C31.3686 30.434 31.2345 30.704 31.2345 32.0429C31.2345 33.3835 31.3687 33.6518 32.039 33.6518C32.7094 33.6518 32.8434 33.3818 32.8434 32.0429ZM4.3595 47.0258C4.43536 46.367 4.73108 45.9196 5.09009 45.9196C5.44923 45.9196 5.74495 46.367 5.82072 47.0258C5.92443 47.9262 5.79072 48.1319 5.09009 48.1319C4.39152 48.1319 4.25588 47.9262 4.3595 47.0258ZM5.49235 46.9229C5.49235 46.4806 5.31149 46.1185 5.08992 46.1185C4.86878 46.1185 4.68749 46.4785 4.68749 46.9229C4.68749 47.3652 4.86835 47.7273 5.08992 47.7273C5.31106 47.7273 5.49235 47.3673 5.49235 46.9229ZM8.78395 47.0258C8.85981 46.367 9.15552 45.9196 9.51453 45.9196C9.87368 45.9196 10.1694 46.367 10.2452 47.0258C10.3489 47.9262 10.2152 48.1319 9.51453 48.1319C8.81596 48.1319 8.68032 47.9262 8.78395 47.0258ZM9.91679 46.9229C9.91679 46.4806 9.73593 46.1185 9.51436 46.1185C9.29322 46.1185 9.11193 46.4785 9.11193 46.9229C9.11193 47.3652 9.29279 47.7273 9.51436 47.7273C9.7355 47.7273 9.91679 47.3673 9.91679 46.9229ZM11.2019 47.1243C11.2104 46.4609 11.3 46.238 11.402 46.6293C11.504 47.0193 11.4971 47.5636 11.3891 47.8362C11.279 48.1062 11.1954 47.789 11.2036 47.1243H11.2019ZM41.7662 47.0258C41.842 46.367 42.1377 45.9196 42.4967 45.9196C42.8559 45.9196 43.1516 46.367 43.2274 47.0258C43.3311 47.9262 43.1974 48.1319 42.4967 48.1319C41.7982 48.1319 41.6625 47.9262 41.7662 47.0258ZM42.899 46.9229C42.899 46.4806 42.7181 46.1185 42.4965 46.1185C42.2754 46.1185 42.0941 46.4785 42.0941 46.9229C42.0941 47.3652 42.275 47.7273 42.4965 47.7273C42.7177 47.7273 42.899 47.3673 42.899 46.9229ZM44.1841 47.1243C44.1926 46.4609 44.2822 46.238 44.3842 46.6293C44.4862 47.0193 44.4794 47.5636 44.3714 47.8362C44.2612 48.1062 44.1776 47.789 44.1858 47.1243H44.1841ZM45.3907 47.1243C45.3993 46.4609 45.4893 46.238 45.5909 46.6293C45.6929 47.0193 45.686 47.5636 45.578 47.8362C45.4679 48.1062 45.3843 47.789 45.3924 47.1243H45.3907ZM47.3234 47.36C47.3234 46.9358 47.0971 46.4978 46.8206 46.3863C46.5202 46.2663 46.6012 46.172 47.0216 46.1506C47.5127 46.1078 47.7255 46.4206 47.7255 47.1243C47.7255 47.6776 47.6351 48.1302 47.5245 48.1302C47.414 48.1302 47.3235 47.783 47.3235 47.3592L47.3234 47.36ZM6.90012 46.1198C7.03683 45.8969 7.2284 45.7169 7.32612 45.7169C7.42383 45.7169 7.50355 45.8969 7.50355 46.1198C7.50355 46.3426 7.31198 46.5226 7.07755 46.5226C6.84312 46.5226 6.7634 46.3426 6.90012 46.1198ZM39.8823 46.1198C40.019 45.8969 40.2106 45.7169 40.3083 45.7169C40.406 45.7169 40.4858 45.8969 40.4858 46.1198C40.4858 46.3426 40.2942 46.5226 40.0598 46.5226C39.8253 46.5226 39.7456 46.3426 39.8823 46.1198ZM6.57329 45.0556C6.42115 44.9056 6.29686 44.3566 6.29686 43.8406C6.29686 43.16 6.52529 42.902 7.12803 42.902C7.79253 42.902 7.93366 43.1163 7.83192 43.9769C7.70463 45.0526 7.09383 45.5759 6.57338 45.0556H6.57329ZM7.50342 44.1085C7.50342 43.6662 7.32256 43.304 7.10099 43.304C6.87985 43.304 6.69856 43.664 6.69856 44.1085C6.69856 44.5512 6.87942 44.9129 7.10099 44.9129C7.32213 44.9129 7.50342 44.5529 7.50342 44.1085ZM8.85556 44.7119C8.50713 43.8042 8.99528 42.896 9.80361 42.9488C10.4751 42.9916 10.4759 43.0088 9.81646 43.1802C9.42946 43.283 9.11258 43.7322 9.11258 44.1822C9.11258 44.744 9.30158 44.9275 9.71592 44.7685C10.0476 44.6399 10.3193 44.7128 10.3193 44.927C10.3193 45.5519 9.10988 45.3753 8.85582 44.7128L8.85556 44.7119ZM41.8378 44.7119C41.4893 43.8042 41.9779 42.896 42.7858 42.9488C43.4573 42.9916 43.4581 43.0088 42.7987 43.1802C42.4117 43.283 42.0948 43.7322 42.0948 44.1822C42.0948 44.744 42.2838 44.9275 42.6981 44.7685C43.0298 44.6399 43.3015 44.7128 43.3015 44.927C43.3015 45.5519 42.0921 45.3753 41.838 44.7128L41.8378 44.7119ZM46.2622 44.7119C45.9138 43.8042 46.4019 42.896 47.2103 42.9488C47.8817 42.9916 47.8826 43.0088 47.2231 43.1802C46.8361 43.283 46.5192 43.6996 46.5192 44.1093C46.5192 44.5208 46.8359 44.9378 47.2231 45.0389C47.8828 45.2103 47.882 45.2275 47.2103 45.2703C46.816 45.3132 46.3896 45.0475 46.2622 44.7136V44.7119ZM11.9827 44.1856C11.9441 43.5676 11.7594 43.3516 11.4251 43.5406C11.0261 43.7678 11.0244 43.712 11.4165 43.2878C12.0674 42.5858 12.4382 42.9963 12.2144 44.1732L12.0357 45.1126L11.9808 44.1839L11.9827 44.1856ZM44.9648 44.1856C44.9306 43.5676 44.7416 43.3516 44.4073 43.5406C44.0083 43.7678 44.0066 43.712 44.3987 43.2878C45.0497 42.5858 45.4204 42.9963 45.1966 44.1732L45.0179 45.1126L44.963 44.1839L44.9648 44.1856ZM4.96439 41.8379C4.81225 41.6879 4.68796 41.1389 4.68796 40.6229C4.68796 39.9423 4.91639 39.6843 5.51913 39.6843C6.18363 39.6843 6.32476 39.8986 6.22302 40.7592C6.09573 41.8349 5.48493 42.3582 4.96448 41.8379H4.96439ZM5.89456 40.8908C5.89456 40.4485 5.7137 40.0863 5.49213 40.0863C5.27099 40.0863 5.0897 40.4463 5.0897 40.8908C5.0897 41.3335 5.27056 41.6952 5.49213 41.6952C5.71328 41.6952 5.89456 41.3352 5.89456 40.8908ZM9.25778 41.4942C8.93035 40.6409 9.3782 39.6843 10.1053 39.6843C10.5214 39.6843 10.7212 40.0743 10.7212 40.8908C10.7212 42.1855 9.68665 42.6119 9.25778 41.4942ZM10.319 40.8908C10.319 40.4485 10.1381 40.0863 9.91658 40.0863C9.69543 40.0863 9.51415 40.4463 9.51415 40.8908C9.51415 41.3335 9.695 41.6952 9.91658 41.6952C10.1377 41.6952 10.319 41.3352 10.319 40.8908ZM42.3627 41.8293C42.2153 41.6836 42.0944 41.1389 42.0944 40.6229C42.0944 39.9522 42.3241 39.6843 42.8988 39.6843C43.5245 39.6843 43.7033 39.95 43.7033 40.8908C43.7033 42.0256 43.0301 42.497 42.3626 41.8293H42.3627ZM43.3012 40.8908C43.3012 40.4485 43.1204 40.0863 42.8988 40.0863C42.6776 40.0863 42.4964 40.4463 42.4964 40.8908C42.4964 41.3335 42.6772 41.6952 42.8988 41.6952C43.1199 41.6952 43.3012 41.3352 43.3012 40.8908ZM44.6533 41.4942C44.3049 40.5865 44.793 39.6783 45.6014 39.731C46.2729 39.7739 46.2737 39.791 45.6142 39.9625C45.2272 40.0653 44.9103 40.4819 44.9103 40.8916C44.9103 41.303 45.227 41.72 45.6142 41.8212C46.2739 41.9926 46.2731 42.0098 45.6013 42.0526C45.207 42.0955 44.7806 41.8255 44.6533 41.4959L44.6533 41.4942ZM47.7859 41.1685C47.7431 40.3915 47.5686 40.127 47.2229 40.3225C46.8239 40.5496 46.8221 40.4939 47.2143 40.0696C47.8926 39.338 48.2207 39.7825 48.0154 41.1535L47.8444 42.2965L47.784 41.1668L47.7859 41.1685ZM7.96045 40.967C7.92616 40.349 7.73716 40.133 7.40288 40.322C7.00388 40.5492 7.00216 40.4935 7.3943 40.0692C8.04518 39.3672 8.41598 39.7778 8.19218 40.9542L8.01346 41.894L7.9586 40.9653L7.96045 40.967ZM4.28566 37.4712C4.28566 36.9179 4.35509 36.4658 4.43995 36.4658C4.5248 36.4658 4.6808 36.9179 4.78623 37.4712C4.89209 38.024 4.82052 38.4766 4.63195 38.4766C4.44123 38.4766 4.28566 38.024 4.28566 37.4712ZM7.50342 37.7069C7.50342 37.2826 7.28656 36.8639 7.02098 36.7752C6.71926 36.6766 6.79469 36.518 7.22198 36.3509C7.77063 36.1409 7.90555 36.308 7.90555 37.2826C7.90555 37.9392 7.81512 38.4766 7.70455 38.4766C7.59398 38.4766 7.50355 38.1295 7.50355 37.7056L7.50342 37.7069ZM8.84892 37.8569C8.71778 37.514 8.70063 37.1463 8.81035 37.0366C8.92006 36.9252 9.10649 37.208 9.22478 37.6572C9.47549 38.6155 9.19906 38.7638 8.84892 37.8586V37.8569ZM41.8429 37.8998C41.7182 37.574 41.6942 37.0778 41.7889 36.7936C41.8836 36.5108 42.0567 36.7936 42.1733 37.3838C42.4009 38.5718 42.2119 38.8649 41.8429 37.8998ZM45.7463 37.814C45.7292 37.3328 45.3979 36.8558 45.0107 36.7546C44.351 36.5832 44.3518 36.566 45.0235 36.5232C45.8036 36.4718 46.3158 37.3508 45.9856 38.1728C45.8716 38.4556 45.764 38.297 45.7465 37.8128L45.7463 37.814ZM47.225 37.484C47.1191 36.9308 47.1907 36.4782 47.3793 36.4782C47.57 36.4782 47.7255 36.9308 47.7255 37.484C47.7255 38.0369 47.6561 38.4895 47.5712 38.4895C47.4864 38.4895 47.3304 38.0369 47.225 37.484ZM6.44223 35.0708C6.0938 34.163 6.58195 33.2545 7.39028 33.3072C8.06176 33.35 8.06258 33.3672 7.40313 33.5386C7.01613 33.6415 6.69925 34.058 6.69925 34.4682C6.69925 34.8796 7.01596 35.2962 7.40313 35.3978C8.06279 35.5692 8.06202 35.5863 7.39028 35.6292C6.99599 35.672 6.56956 35.402 6.44223 35.0725V35.0708ZM9.61512 35.4222C10.0021 35.3065 10.319 34.8796 10.319 34.4695C10.319 34.058 10.0023 33.6308 9.61512 33.5163C9.06805 33.3535 9.09046 33.3278 9.71583 33.392C10.281 33.452 10.5203 33.7692 10.5203 34.4695C10.5203 35.168 10.2811 35.4886 9.71583 35.5469C9.09063 35.6112 9.06822 35.5898 9.61512 35.4226V35.4222ZM42.5973 35.4222C42.9843 35.3065 43.3012 34.8796 43.3012 34.4695C43.3012 34.058 42.9845 33.6308 42.5973 33.5163C42.0503 33.3535 42.0727 33.3278 42.698 33.392C43.2632 33.452 43.5025 33.7692 43.5025 34.4695C43.5025 35.168 43.2633 35.4886 42.698 35.5469C42.0728 35.6112 42.0504 35.5898 42.5973 35.4226V35.4222ZM45.0034 34.4695C45.0034 33.695 45.0861 33.3783 45.1873 33.7653C45.2884 34.151 45.2884 34.7862 45.1873 35.1732C45.0861 35.5589 45.0034 35.246 45.0034 34.4695ZM47.0218 35.4222C47.4088 35.3065 47.7257 34.8796 47.7257 34.4695C47.7257 34.058 47.4089 33.6308 47.0218 33.5163C46.4747 33.3535 46.4971 33.3278 47.1225 33.392C47.6876 33.452 47.9269 33.7692 47.9269 34.4695C47.9269 35.168 47.6878 35.4886 47.1225 35.5469C46.4973 35.6112 46.4749 35.5898 47.0218 35.4226V35.4222ZM4.83333 31.8548C4.4849 30.947 4.97305 30.0389 5.78138 30.0916C6.45286 30.1345 6.45368 30.1516 5.79423 30.323C5.40723 30.4259 5.09035 30.8425 5.09035 31.2526C5.09035 31.664 5.40706 32.0806 5.79423 32.1818C6.45393 32.3532 6.45312 32.3703 5.78138 32.4132C5.38752 32.456 4.96066 32.1903 4.83333 31.8565V31.8548ZM7.96593 31.529C7.92308 30.752 7.74865 30.488 7.40288 30.683C7.00388 30.9102 7.00216 30.8588 7.3943 30.4302C8.07256 29.699 8.40076 30.143 8.19543 31.5145L8.02443 32.6575L7.964 31.5273L7.96593 31.529ZM9.84136 32.183C10.1315 32.0673 10.4786 32.0802 10.6123 32.2259C10.746 32.3588 10.5086 32.453 10.0844 32.4359C9.6158 32.4359 9.52049 32.3202 9.84136 32.1916V32.183ZM40.9481 31.529C40.9053 30.752 40.7309 30.488 40.3851 30.683C39.9861 30.9102 39.9844 30.8588 40.3765 30.4302C41.0548 29.699 41.383 30.143 41.1776 31.5145L41.0066 32.6575L40.9462 31.5273L40.9481 31.529ZM42.24 31.8548C41.8916 30.947 42.3801 30.0389 43.188 30.0916C43.8595 30.1345 43.8603 30.1516 43.2009 30.323C42.8139 30.4259 42.497 30.8425 42.497 31.2526C42.497 31.664 42.8137 32.0806 43.2008 32.1818C43.8605 32.3532 43.8597 32.3703 43.188 32.4132C42.7941 32.456 42.3673 32.1903 42.2399 31.8565L42.24 31.8548ZM45.4129 32.2062C45.7999 32.0905 46.1168 31.6632 46.1168 31.2535C46.1168 30.842 45.8001 30.4143 45.4129 30.3003C44.8658 30.1375 44.8882 30.1118 45.5136 30.176C46.0788 30.236 46.3181 30.5532 46.3181 31.2535C46.3181 31.952 46.0789 32.2726 45.5136 32.3309C44.8884 32.3952 44.866 32.3738 45.4129 32.2066V32.2062ZM47.6254 31.445C47.5187 30.8866 47.5868 30.3329 47.7797 30.2146C47.9712 30.0946 48.1281 30.5532 48.1281 31.2295C48.1281 32.723 47.8894 32.825 47.6256 31.4438L47.6254 31.445ZM9.84136 30.1743C10.1315 30.0586 10.4786 30.0715 10.6123 30.2172C10.746 30.35 10.5086 30.4443 10.0844 30.4272C9.6158 30.4272 9.52049 30.3115 9.84136 30.1829V30.1743Z" fill="black"/>
</svg>
