<svg width="60" height="56" viewBox="0 0 60 56" fill="none" xmlns="http://www.w3.org/2000/svg">
<path d="M9.12699 53.6604V51.7932L12.2772 51.7229C18.3421 51.5873 20.6229 50.9504 21.5866 49.1235C21.8827 48.5624 21.9036 48.4266 21.8887 47.1662C21.8784 46.2783 21.796 45.5077 21.6503 44.9287L21.428 44.0454L12.0094 43.9862L2.59091 43.9271L1.98943 43.6549C1.28551 43.3363 0.660971 42.7276 0.275069 41.984L0 41.4541V21.9636V2.47313L0.265727 1.97587C0.682402 1.19601 1.19637 0.684801 1.9218 0.328558L2.59091 0H29.7951H56.9994L57.7648 0.364029C58.6744 0.796648 59.3357 1.43036 59.7199 2.23757L60.0001 2.82638V22.0004V41.1745L59.6804 41.8271C59.3071 42.5895 58.6693 43.1851 57.7625 43.6179L57.1147 43.9271L47.4356 43.9605L37.7565 43.9939L37.5807 44.6084C37.0555 46.4444 36.8928 48.2526 37.1699 49.1771C37.7195 51.0117 40.3579 51.7516 46.3685 51.7569H48.4588V53.6412V55.5255H28.7917H9.12459V53.6583L9.12699 53.6604ZM55.4095 21.9639V4.65215H30.0307H4.65183V21.9639V39.2757H30.0307H55.4095V21.9639Z" fill="#00BCF2"/>
</svg>
