<svg width="58" height="58" viewBox="0 0 58 58" fill="none" xmlns="http://www.w3.org/2000/svg">
<path d="M0 28.6071C0 12.8076 12.8076 0 28.6071 0C44.4066 0 57.2143 12.8076 57.2143 28.6071C57.2143 44.4066 44.4066 57.2143 28.6071 57.2143C12.8076 57.2143 0 44.4066 0 28.6071Z" fill="#F7931A"/>
<path d="M33.0416 9.53564C31.336 13.9629 29.6305 18.7308 27.5838 23.4986C27.5838 23.4986 27.5838 24.1798 28.266 24.1798H42.2517C42.2517 24.1798 42.2517 24.5203 42.5928 24.8609L22.1259 47.6785C21.7848 47.3379 21.7848 46.9974 21.7848 46.6568L28.9482 31.3316V29.9693H14.6214V28.6071L32.0183 9.53564H33.0416Z" fill="white"/>
</svg>
