<svg width="52" height="52" viewBox="0 0 52 52" fill="none" xmlns="http://www.w3.org/2000/svg">
<path d="M21.0042 32.457C23.4801 32.457 25.8168 32.9956 27.8904 33.9499C26.2733 32.1381 23.7715 30.9692 20.9553 30.9692C18.0995 30.9692 15.567 32.172 13.9542 34.0277C16.0692 33.0258 18.4642 32.457 21.0042 32.457ZM28.0956 9.60743C24.2386 5.75037 18.0071 5.78148 14.1493 9.63742C10.2923 13.4942 10.2658 19.7404 14.1232 23.5966L21.0909 30.5263L28.0737 23.5425C31.931 19.6851 31.9523 13.4635 28.096 9.60661L28.0956 9.60743ZM21.1165 22.4893C17.8351 22.4893 15.1751 19.829 15.1751 16.5483C15.1751 13.2662 17.8351 10.6063 21.1165 10.6063C24.3986 10.6063 27.0587 13.2668 27.0587 16.5483C27.0587 19.8285 24.3994 22.4893 21.1165 22.4893V22.4893ZM36.0428 6.17667C27.8094 -2.05889 14.4112 -2.05889 6.1765 6.17667C-2.05883 14.4101 -2.05883 27.8089 6.1765 36.043C14.1287 43.9951 26.896 44.2657 35.1783 36.8591L36.8526 38.5341C36.4357 39.6012 36.6542 40.8587 37.516 41.7206L46.3509 50.5554C47.5123 51.7175 49.3962 51.7175 50.557 50.5554C51.7191 49.3946 51.7191 47.5112 50.557 46.3486L41.7228 37.5156C40.8603 36.6524 39.6023 36.434 38.535 36.8515L36.8607 35.1766C44.2687 26.8948 43.9956 14.1275 36.0428 6.17667V6.17667ZM8.70024 33.5199C1.85736 26.6778 1.85736 15.5423 8.70024 8.69941C15.5425 1.85654 26.6776 1.85654 33.5203 8.69941C40.3632 15.5423 40.3632 26.6776 33.5203 33.5199C26.6776 40.362 15.5425 40.362 8.70024 33.5199V33.5199Z" fill="black"/>
</svg>
